<?xml version="1.0" encoding="utf-8"?>
<!-- Generator: Adobe Illustrator 18.0.0, SVG Export Plug-In . SVG Version: 6.00 Build 0)  -->
<!DOCTYPE svg PUBLIC "-//W3C//DTD SVG 1.1//EN" "http://www.w3.org/Graphics/SVG/1.1/DTD/svg11.dtd">
<svg version="1.1" id="Layer_1" xmlns="http://www.w3.org/2000/svg" xmlns:xlink="http://www.w3.org/1999/xlink" x="0px" y="0px"
	 viewBox="0 0 100 100" enable-background="new 0 0 100 100" xml:space="preserve">
<g>
	<path fill="#999999" d="M204.5-42.9c-2.5-1.1-4-2.2-5.5-3c-2.7-1.6-3.9-2.3-3.9-6.9c0-5.9,4.9-9.4,5.2-10.1c1.6-3.3,0.8-6,0.3-7.3
		c3.5-7.7-0.7-14.1-1.6-15.3c-2.3-6.5-7.1-7.9-10.8-7.9c-4.3,0-8.2,1.9-8.3,1.9c-4,1.6-6.7,4.2-8.1,7.7c-2.3,5.6-0.2,11.7,0.5,13.6
		c-1.8,4.4,0.3,7.4,0.4,7.5c0.4,0.4,5.1,4,5.1,9.9c0,5.7-3.1,6.9-7.6,8.2c-4.5,1.5-13.7,4.5-13.7,14.4v1.3h58.7v-1.4
		C215-38.2,208.9-40.9,204.5-42.9z M159.2-31.5c0.8-6.9,7.9-9.3,11.8-10.5c4.5-1.5,9.4-3.1,9.4-10.8c0-6.5-4.6-10.7-5.7-11.6
		c-0.3-0.5-1.1-2.4,0.2-5.2l0.3-0.6l-0.3-0.5c0-0.1-2.9-6.6-0.7-12.1c1.1-2.8,3.3-4.8,6.7-6.2c0,0,3.5-1.7,7.2-1.7
		c4.2,0,6.9,2,8.4,6.5c0.2,0.3,4.9,6.3,1.3,13.5l-0.3,0.7l0.4,0.6c0,0,1.3,2.2,0,5.1c-1.2,1-5.6,5.1-5.6,11.5c0,5.9,2,7.3,5.3,9.2
		c1.5,0.9,3.4,2,5.7,3.1c3.9,1.8,8.3,3.8,9,9H159.2z"/>
	<path fill="#999999" d="M231.2-34.1h-13.9c-0.3-1-0.6-1.9-1.1-2.7h12.1c-0.7-4.3-4.3-5.9-7.6-7.4c-2-0.9-3.6-1.9-4.9-2.7
		c-2.4-1.4-4.6-2.7-4.6-8.1c0-5.5,3.8-9.2,4.8-10.1c1-2.3,0-4.1-0.1-4.2l-0.4-0.6l0.3-0.7c3-6-0.8-11-1.1-11.4
		c-1.2-3.8-3.5-5.5-7-5.5c-3.1,0-6,1.5-6.1,1.5c0,0,0,0,0,0c-0.1-0.3-0.3-0.5-0.4-0.7c-0.2-0.6-0.5-1.2-0.8-1.7c0,0,0.1-0.1,0.1-0.1
		c0,0,3.4-1.7,7.2-1.7c3.2,0,7.4,1.2,9.4,6.9c0.8,1.1,4.4,6.6,1.5,13.3c0.4,1.1,1.1,3.5-0.3,6.3c-0.3,0.6-4.5,3.5-4.5,8.6
		c0,3.9,0.9,4.4,3.2,5.8c1.2,0.7,2.5,1.6,4.7,2.6c3.8,1.8,9.1,4.2,9.2,11.2L231.2-34.1z"/>
	<path fill="#999999" d="M141.2-35.5c0.1-7,5.4-9.4,9.2-11.2c2.2-0.9,3.5-1.9,4.7-2.6c2.3-1.3,3.2-1.9,3.2-5.8c0-5.1-4.2-8-4.5-8.6
		c-1.3-2.8-0.7-5.2-0.3-6.3c-2.9-6.7,0.6-12.1,1.5-13.3c2-5.7,6.2-6.9,9.4-6.9c3.8,0,7.1,1.7,7.2,1.7c0.1,0,0.1,0,0.1,0.1
		c-0.3,0.5-0.5,1.1-0.8,1.7c-0.1,0.2-0.3,0.4-0.4,0.7c0,0,0,0,0,0c0,0-2.9-1.5-6.1-1.5c-3.5,0-5.8,1.8-7,5.5
		c-0.3,0.4-4.1,5.4-1.1,11.4l0.3,0.7l-0.4,0.6c-0.1,0.1-1.1,1.9-0.1,4.2c1.1,0.9,4.8,4.6,4.8,10.1c0,5.4-2.1,6.7-4.6,8.1
		c-1.3,0.8-2.9,1.8-4.9,2.7c-3.2,1.5-6.9,3.1-7.6,7.4h12.1c-0.4,0.8-0.8,1.8-1.1,2.7h-13.9L141.2-35.5z"/>
</g>
<g>
	<path fill="#999999" d="M-56.8,168.9c0,24.9-20.1,45-45,45s-45-20.1-45-45c0-24.9,20.1-45,45-45S-56.8,144-56.8,168.9z M-60,168.9
		c0-23.1-18.7-41.8-41.8-41.8s-41.8,18.7-41.8,41.8c0,23.1,18.7,41.8,41.8,41.8S-60,191.9-60,168.9z M-76,168.9
		c0,14.2-11.5,25.7-25.7,25.7s-25.7-11.5-25.7-25.7c0-14.2,11.5-25.7,25.7-25.7S-76,154.7-76,168.9z M-79.3,168.9
		c0-12.4-10.1-22.5-22.5-22.5s-22.5,10.1-22.5,22.5c0,12.4,10.1,22.5,22.5,22.5S-79.3,181.3-79.3,168.9z M-95.3,168.9
		c0,3.6-2.9,6.4-6.4,6.4s-6.4-2.9-6.4-6.4c0-3.6,2.9-6.4,6.4-6.4S-95.3,165.3-95.3,168.9z"/>
</g>
<g>
	<path fill="#999999" d="M248.3,143.1v51.4c0,1.8-1.5,3.2-3.2,3.2h-83.6c-1.8,0-3.2-1.4-3.2-3.2v-51.4c0-1.8,1.5-3.2,3.2-3.2h83.6
		C246.8,139.9,248.3,141.3,248.3,143.1z M161.5,193.6l24.7-24.7l-24.7-24.7V193.6z M165,143.1l36,36c0.7,0.6,1.5,1,2.3,1
		s1.7-0.4,2.3-1l36-36H165z M241.6,194.6l-23.5-23.5l-10.4,10.4c-1.2,1.2-2.9,1.8-4.5,1.8c-1.6,0-3.2-0.6-4.5-1.8l-10.3-10.4
		L165,194.6H241.6z M245.1,144.1l-24.7,24.7l24.7,24.7V144.1z"/>
</g>
<g>
	<path fill-rule="evenodd" clip-rule="evenodd" fill="#999999" d="M10.9,29.5C23.3,14.3,50.1,13,66.8,23.4c1.4-1,2.9-1.9,4.2-2.6
		c1.5-0.9,3.1,0.1,3.2,1.6l0.2,7.1c5.8,5.6,8.3,9.5,16.7,12.1c1.3-2.1,4.3-0.6,3.8,1.6l-3,14.8c-0.1,0.5-0.3,0.9-0.8,1.3
		c-9,7.2-14.8,10-26.9,12.1l-2.8,9.9l0,0c-0.8,3-9.1,2.2-11.9,1.4l0,0c-0.7-0.2-1.3-0.8-1.5-1.6l-1.8-8.9c-5.7,0.8-9.6,0.2-14.9-1.7
		L29.2,81c-0.1,0.8-0.7,1.5-1.5,1.7c-2.8,0.8-11.2,1.5-12-1.5C13.4,71.5,5.3,52.9,5.3,44.6c0-4.6,1.4-8.9,3.9-12.8
		c-6.1-5.4-5.6-14.7,1.5-15c6.8-0.3,6.7,7.9,3.5,7c-2.3-0.7,0.5-3-2.1-3.9C7.6,18.4,6.1,24.9,10.9,29.5L10.9,29.5z M68.6,40.6
		c5.8,0,5.8,8.8,0,8.8C62.8,49.4,62.8,40.6,68.6,40.6L68.6,40.6z M73.6,34.6c-0.3,1.3-1,2.7-2.7,2.3c-3.1-0.8-0.4-3.9-0.6-10.8
		c-5.9,3.9-5.9,7.6-8.5,6c-2.5-1.5,0.3-4.5,1.6-5.8c-7.2-4.1-15-5.3-22.8-5.3c-15.1,0-31,9.2-31,23.7c0,6.9,7.5,25.3,9.9,34.3l5.9,0
		c0.8-3.9,1.6-7.8,2.4-11.7c0.8-3.8,5.4,0.2,11.2,1c6.3,0.8,10.5-2.1,11,1.3l1.9,9.5l5.9,0l4.7-16.6c0.3-1.1,1.5-1.8,2.6-1.4
		c2.6,0.7,1.1,3.7,0.5,5.9c5-1,8.7-2.1,11.9-3.6c3.7-1.7,6.8-3.9,10.5-6.8l2.2-10.7C81.7,43.1,78.9,39.9,73.6,34.6L73.6,34.6z
		 M18.2,82.7c-0.3,0.1-0.6,0.1-0.9,0L18.2,82.7L18.2,82.7z"/>
	<path fill-rule="evenodd" clip-rule="evenodd" fill="#999999" d="M47.8,29.7c-4.5-1.1-9.4-1.1-14,0.1c-2.7,0.7-3.7-3.4-1.1-4.1
		c5.2-1.4,10.8-1.4,16-0.1C51.5,26.3,50.5,30.3,47.8,29.7L47.8,29.7z"/>
</g>
</svg>
