<?xml version="1.0" encoding="utf-8"?>
<!-- Generator: Adobe Illustrator 18.0.0, SVG Export Plug-In . SVG Version: 6.00 Build 0)  -->
<!DOCTYPE svg PUBLIC "-//W3C//DTD SVG 1.1//EN" "http://www.w3.org/Graphics/SVG/1.1/DTD/svg11.dtd">
<svg version="1.1" id="Layer_1" xmlns="http://www.w3.org/2000/svg" xmlns:xlink="http://www.w3.org/1999/xlink" x="0px" y="0px"
	 viewBox="0 0 100 100" enable-background="new 0 0 100 100" xml:space="preserve">
<g>
	<path fill="#666766" d="M208.9-39.4c-2.5-1.1-4-2.2-5.5-3c-2.7-1.6-3.9-2.3-3.9-6.9c0-5.9,4.9-9.4,5.2-10.1c1.6-3.3,0.8-6,0.3-7.3
		c3.5-7.7-0.7-14.1-1.6-15.3c-2.3-6.5-7.1-7.9-10.8-7.9c-4.3,0-8.2,1.9-8.3,1.9c-4,1.6-6.7,4.2-8.1,7.7c-2.3,5.6-0.2,11.7,0.5,13.6
		c-1.8,4.4,0.3,7.4,0.4,7.5c0.4,0.4,5.1,4,5.1,9.9c0,5.7-3.1,6.9-7.6,8.2c-4.5,1.5-13.7,4.5-13.7,14.4v1.3h58.7v-1.4
		C219.4-34.7,213.4-37.4,208.9-39.4z M163.6-28c0.8-6.9,7.9-9.3,11.8-10.5c4.5-1.5,9.4-3.1,9.4-10.8c0-6.5-4.6-10.7-5.7-11.6
		c-0.3-0.5-1.1-2.4,0.2-5.2l0.3-0.6l-0.3-0.5c0-0.1-2.9-6.6-0.7-12.1c1.1-2.8,3.3-4.8,6.7-6.2c0,0,3.5-1.7,7.2-1.7
		c4.2,0,6.9,2,8.4,6.5c0.2,0.3,4.9,6.3,1.3,13.5l-0.3,0.7l0.4,0.6c0,0,1.3,2.2,0,5.1c-1.2,1-5.6,5.1-5.6,11.5c0,5.9,2,7.3,5.3,9.2
		c1.5,0.9,3.4,2,5.7,3.1c3.9,1.8,8.3,3.8,9,9H163.6z"/>
	<path fill="#666766" d="M235.6-30.6h-13.9c-0.3-1-0.6-1.9-1.1-2.7h12.1c-0.7-4.3-4.3-5.9-7.6-7.4c-2-0.9-3.6-1.9-4.9-2.7
		c-2.4-1.4-4.6-2.7-4.6-8.1c0-5.5,3.8-9.2,4.8-10.1c1-2.3,0-4.1-0.1-4.2l-0.4-0.6l0.3-0.7c3-6-0.8-11-1.1-11.4
		c-1.2-3.8-3.5-5.5-7-5.5c-3.1,0-6,1.5-6.1,1.5c0,0,0,0,0,0c-0.1-0.3-0.3-0.5-0.4-0.7c-0.2-0.6-0.5-1.2-0.8-1.7c0,0,0.1-0.1,0.1-0.1
		c0,0,3.4-1.7,7.2-1.7c3.2,0,7.4,1.2,9.4,6.9c0.8,1.1,4.4,6.6,1.5,13.3c0.4,1.1,1.1,3.5-0.3,6.3c-0.3,0.6-4.5,3.5-4.5,8.6
		c0,3.9,0.9,4.4,3.2,5.8c1.2,0.7,2.5,1.6,4.7,2.6c3.8,1.8,9.1,4.2,9.2,11.2L235.6-30.6z"/>
	<path fill="#666766" d="M145.6-32c0.1-7,5.4-9.4,9.2-11.2c2.2-0.9,3.5-1.9,4.7-2.6c2.3-1.3,3.2-1.9,3.2-5.8c0-5.1-4.2-8-4.5-8.6
		c-1.3-2.8-0.7-5.2-0.3-6.3c-2.9-6.7,0.6-12.1,1.5-13.3c2-5.7,6.2-6.9,9.4-6.9c3.8,0,7.1,1.7,7.2,1.7c0.1,0,0.1,0,0.1,0.1
		c-0.3,0.5-0.5,1.1-0.8,1.7c-0.1,0.2-0.3,0.4-0.4,0.7c0,0,0,0,0,0c0,0-2.9-1.5-6.1-1.5c-3.5,0-5.8,1.8-7,5.5
		c-0.3,0.4-4.1,5.4-1.1,11.4l0.3,0.7l-0.4,0.6c-0.1,0.1-1.1,1.9-0.1,4.2c1.1,0.9,4.8,4.6,4.8,10.1c0,5.4-2.1,6.7-4.6,8.1
		c-1.3,0.8-2.9,1.8-4.9,2.7c-3.2,1.5-6.9,3.1-7.6,7.4h12.1c-0.4,0.8-0.8,1.8-1.1,2.7h-13.9L145.6-32z"/>
</g>
<g>
	<path fill="#666766" d="M-83.8,194.2c0,24.9-20.1,45-45,45s-45-20.1-45-45c0-24.9,20.1-45,45-45S-83.8,169.3-83.8,194.2z
		 M-87,194.2c0-23.1-18.7-41.8-41.8-41.8s-41.8,18.7-41.8,41.8c0,23.1,18.7,41.8,41.8,41.8S-87,217.3-87,194.2z M-103.1,194.2
		c0,14.2-11.5,25.7-25.7,25.7s-25.7-11.5-25.7-25.7c0-14.2,11.5-25.7,25.7-25.7S-103.1,180-103.1,194.2z M-106.3,194.2
		c0-12.4-10.1-22.5-22.5-22.5s-22.5,10.1-22.5,22.5c0,12.4,10.1,22.5,22.5,22.5S-106.3,206.7-106.3,194.2z M-122.3,194.2
		c0,3.6-2.9,6.4-6.4,6.4s-6.4-2.9-6.4-6.4c0-3.6,2.9-6.4,6.4-6.4S-122.3,190.7-122.3,194.2z"/>
</g>
<g>
	<path fill="#666766" d="M267,168.5v51.4c0,1.8-1.5,3.2-3.2,3.2h-83.6c-1.8,0-3.2-1.4-3.2-3.2v-51.4c0-1.8,1.5-3.2,3.2-3.2h83.6
		C265.5,165.3,267,166.7,267,168.5z M180.2,218.9l24.7-24.7l-24.7-24.7V218.9z M183.7,168.5l36,36c0.7,0.6,1.5,1,2.3,1
		s1.7-0.4,2.3-1l36-36H183.7z M260.3,219.9l-23.5-23.5l-10.4,10.4c-1.2,1.2-2.9,1.8-4.5,1.8c-1.6,0-3.2-0.6-4.5-1.8l-10.3-10.4
		l-23.5,23.5H260.3z M263.8,169.5l-24.7,24.7l24.7,24.7V169.5z"/>
</g>
<g>
	<path fill-rule="evenodd" clip-rule="evenodd" fill="#666766" d="M-133.7-78.1c12.4-15.2,39.2-16.5,55.9-6.1c1.4-1,2.9-1.9,4.2-2.6
		c1.5-0.9,3.1,0.1,3.2,1.6l0.2,7.1c5.8,5.6,8.3,9.5,16.7,12.1c1.3-2.1,4.3-0.6,3.8,1.6l-3,14.8c-0.1,0.5-0.3,0.9-0.8,1.3
		c-9,7.2-14.8,10-26.9,12.1l-2.8,9.9l0,0c-0.8,3-9.1,2.2-11.9,1.4l0,0c-0.7-0.2-1.3-0.8-1.5-1.6l-1.8-8.9c-5.7,0.8-9.6,0.2-14.9-1.7
		l-2.1,10.5c-0.1,0.8-0.7,1.5-1.5,1.7c-2.8,0.8-11.2,1.5-12-1.5c-2.3-9.6-10.3-28.2-10.3-36.5c0-4.6,1.4-8.9,3.9-12.8
		c-6.1-5.4-5.6-14.7,1.5-15c6.8-0.3,6.7,7.9,3.5,7c-2.3-0.7,0.5-3-2.1-3.9C-137.1-89.2-138.6-82.7-133.7-78.1L-133.7-78.1z M-76-67
		c5.8,0,5.8,8.8,0,8.8C-81.8-58.2-81.8-67-76-67L-76-67z M-71-73c-0.3,1.3-1,2.7-2.7,2.3c-3.1-0.8-0.4-3.9-0.6-10.8
		c-5.9,3.9-5.9,7.6-8.5,6c-2.5-1.5,0.3-4.5,1.6-5.8c-7.2-4.1-15-5.3-22.8-5.3c-15.1,0-31,9.2-31,23.7c0,6.9,7.5,25.3,9.9,34.3l5.9,0
		c0.8-3.9,1.6-7.8,2.4-11.7c0.8-3.8,5.4,0.2,11.2,1c6.3,0.8,10.5-2.1,11,1.3l1.9,9.5l5.9,0l4.7-16.6c0.3-1.1,1.5-1.8,2.6-1.4
		c2.6,0.7,1.1,3.7,0.5,5.9c5-1,8.7-2.1,11.9-3.6c3.7-1.7,6.8-3.9,10.5-6.8l2.2-10.7C-63-64.4-65.8-67.7-71-73L-71-73z M-126.5-24.9
		c-0.3,0.1-0.6,0.1-0.9,0L-126.5-24.9L-126.5-24.9z"/>
	<path fill-rule="evenodd" clip-rule="evenodd" fill="#666766" d="M-96.9-77.9c-4.5-1.1-9.4-1.1-14,0.1c-2.7,0.7-3.7-3.4-1.1-4.1
		c5.2-1.4,10.8-1.4,16-0.1C-93.2-81.3-94.2-77.3-96.9-77.9L-96.9-77.9z"/>
</g>
<g>
	<path fill="#666766" d="M-295-68.8c0-3.1,2.5-5.6,5.6-5.6h78.8c3.1,0,5.6,2.5,5.6,5.6L-250-35L-295-68.8z M-205-58.7v46.1
		c0,3.1-2.5,5.6-5.6,5.6h-78.8c-3.1,0-5.6-2.5-5.6-5.6v-46.1l45,33.8L-205-58.7z"/>
</g>
<g>
	<path fill="#666766" d="M327.3-24.2c-1.1,0-1.9-0.8-1.9-1.9V-58h-31.9c-1.1,0-1.9-0.8-1.9-1.9v-18.7c0-1.1,0.8-1.9,1.9-1.9h31.9
		v-31.9c0-1.1,0.8-1.9,1.9-1.9H346c1.1,0,1.9,0.8,1.9,1.9v31.9h31.9c1.1,0,1.9,0.8,1.9,1.9v18.7c0,1.1-0.8,1.9-1.9,1.9h-31.9v31.9
		c0,1.1-0.8,1.9-1.9,1.9H327.3z"/>
</g>
<g>
	<path fill="#666766" d="M-165.7,61.2c0,11.2-8.8,19.9-19.7,22c-10.9,2.2-19.7-2.8-19.7-11.1c0-8.3,8.8-17.3,19.7-19.4
		c2.7-0.5,5.3-0.8,7.6-0.8h2.7V29.4l-41.3,9.4v33.7c0,11.2-8.8,19.9-19.7,22c-10.9,2.2-19.7-2.8-19.7-11.1c0-8.3,8.8-17.3,19.7-19.4
		c2.7-0.5,5.3-0.8,7.6-0.8h2.7V22.7c0-3.1,2.5-6.2,5.5-6.9l49-10.8c3-0.6,5.5,1.4,5.5,4.5V61.2z"/>
</g>
<g>
	<path fill="#666766" d="M80,35c0,5.3-1.5,10.4-3.9,14.7L51.7,94.1C51.4,94.6,50.6,95,50,95c-0.7,0-1.4-0.4-1.7-0.9L23.9,49.7
		C21.3,45.4,20,40.3,20,35C20,18.4,33.4,5,50,5S80,18.4,80,35z M61.2,35c0-6.3-5-11.2-11.2-11.2s-11.2,5-11.2,11.2
		c0,6.2,5,11.2,11.2,11.2S61.2,41.3,61.2,35z"/>
</g>
<g>
	<path fill="#666766" d="M246.2,87.9c-9.5,9.5-24.9,9.5-34.5,0c-9.5-9.6-9.5-25,0-34.5l12.8-12.8c-0.4,4.8,0.2,9.6,1.8,14.1
		l-6.6,6.6c-5.1,5.1-5.1,13.4,0,18.5s13.4,5.1,18.5,0l13.9-13.9c5.2-5.1,5.2-13.4,0-18.5c-2.2-2.2-2.2-5.8,0-8s5.8-2.2,8,0
		c9.4,9.6,9.4,25,0,34.5L246.2,87.9z M274.7,59.4c0.4-4.8-0.2-9.4-1.8-13.9l6.6-6.8c5.1-5.1,5.1-13.4,0-18.5
		c-5.1-5.1-13.4-5.1-18.5,0l-14.1,13.9c-5.1,5.2-5.1,13.4,0,18.7c2.3,2.2,2.3,5.7,0,7.9c-2.2,2.2-5.7,2.2-7.9,0
		c-9.4-9.6-9.4-25,0-34.5l14-13.9c9.6-9.6,25-9.6,34.4,0c9.6,9.4,9.6,24.9,0,34.4L274.7,59.4z"/>
</g>
</svg>
