<?xml version="1.0" encoding="utf-8"?>
<!-- Generator: Adobe Illustrator 18.0.0, SVG Export Plug-In . SVG Version: 6.00 Build 0)  -->
<!DOCTYPE svg PUBLIC "-//W3C//DTD SVG 1.1//EN" "http://www.w3.org/Graphics/SVG/1.1/DTD/svg11.dtd">
<svg version="1.1" id="Layer_1" xmlns="http://www.w3.org/2000/svg" xmlns:xlink="http://www.w3.org/1999/xlink" x="0px" y="0px"
	 viewBox="0 0 783 141" enable-background="new 0 0 783 141" xml:space="preserve">
<g>
	<g>
		<path fill="none" stroke="#999999" stroke-width="2" stroke-miterlimit="10" d="M773.9,91.5l-127.5,24.6
			c-4.1,0.8-9.1,0.2-11.3-1.2L523.3,40.1c-2.2-1.5-0.6-3.3,3.4-4.1l127.5-24.6c4.1-0.8,9.1-0.2,11.3,1.2l111.9,74.8
			C779.5,88.9,778,90.7,773.9,91.5z"/>
		<path fill="none" stroke="#999999" stroke-width="2" stroke-miterlimit="10" d="M717.6,72.9c-12.3-8.2-40.9-11.3-63.9-6.8
			S622,80.7,634.3,89s40.9,11.3,63.9,6.8C721.2,91.4,729.9,81.1,717.6,72.9z"/>
		<path fill="none" stroke="#999999" stroke-width="2" stroke-miterlimit="10" d="M690.5,48.4l-98,18.9c-4.1,0.8-9.1,0.2-11.3-1.2
			l-33.7-22.5c-2.2-1.5-0.6-3.3,3.4-4.1l98-18.9c4.1-0.8,9.1-0.2,11.3,1.2l33.7,22.5C696.1,45.8,694.5,47.6,690.5,48.4z"/>
		<path fill="none" stroke="#999999" stroke-width="2" stroke-miterlimit="10" d="M522.3,38.5c0,0-2.3,15.4,1,17.6l111.9,74.8
			c2.2,1.5,7.2,2,11.3,1.2l127.5-24.6c8-1.5,4.4-18.4,4.4-18.4"/>
	</g>
	<path fill="none" stroke="#999999" stroke-width="2" stroke-miterlimit="10" d="M536.4,34.2c0,0-97-80.2-179,19.8
		S93.4,148.7,44.4,114.7c0,0-20-28.4,10-62.2"/>
	<path fill="none" stroke="#999999" stroke-width="2" stroke-miterlimit="10" d="M44.4,114.7c0,0-47-19.5-37-51.8"/>
	<path fill="none" stroke="#999999" stroke-width="2" stroke-miterlimit="10" d="M87.7,14.5C82.3,11.2,75.2,13,72,18.4L52.4,50.8
		l6,3.6l14.1-23.4c0.9,1.2,2,2.3,3.4,3.1c5.4,3.3,15.6,3.4,18.9-2C98.1,26.7,93.2,17.8,87.7,14.5z"/>
	<path fill="none" stroke="#999999" stroke-width="2" stroke-miterlimit="10" d="M22.4,16c-6.3-0.9-12.1,3.5-13,9.8L4.1,63.3l6.9,1
		l3.8-27c1.3,0.8,2.7,1.3,4.3,1.5c6.3,0.9,15.7-3,16.6-9.3S28.7,16.9,22.4,16z"/>
</g>
</svg>
